<?xml version="1.0" encoding="UTF-8"?>
<svg width="485px" height="111px" viewBox="0 0 485 111" version="1.1" xmlns="http://www.w3.org/2000/svg" xmlns:xlink="http://www.w3.org/1999/xlink">
    <!-- Generator: Sketch 47.1 (45422) - http://www.bohemiancoding.com/sketch -->
    <title>centigrade-logotype-inverse-plain</title>
    <desc>Created with Sketch.</desc>
    <defs></defs>
    <g id="Page-1" stroke="none" stroke-width="1" fill="none" fill-rule="evenodd">
        <g id="centigrade-logotype-inverse-plain" transform="translate(15.000000, 15.000000)">
            <path d="M0.784,33.528 C0.784,29.0479776 1.48799296,24.9360187 2.896,21.192 C4.30400704,17.4479813 6.22398784,14.2320134 8.656,11.544 C11.0880122,8.85598656 13.9839832,6.77600736 17.344,5.304 C20.7040168,3.83199264 24.3359805,3.096 28.24,3.096 C31.6960173,3.096 34.8319859,3.59199504 37.648,4.584 C40.4640141,5.57600496 42.8959898,6.93599136 44.944,8.664 C46.9920102,10.3920086 48.6719934,12.4879877 49.984,14.952 C51.2960066,17.4160123 52.2399971,20.1199853 52.816,23.064 L40.72,23.064 C39.6959949,20.3759866 38.2080098,18.2000083 36.256,16.536 C34.3039902,14.8719917 31.632017,14.04 28.24,14.04 C25.8719882,14.04 23.7600093,14.5199952 21.904,15.48 C20.0479907,16.4400048 18.4640066,17.7999912 17.152,19.56 C15.8399934,21.3200088 14.8480034,23.3839882 14.176,25.752 C13.5039966,28.1200118 13.168,30.7119859 13.168,33.528 C13.168,36.3440141 13.5039966,38.9359882 14.176,41.304 C14.8480034,43.6720118 15.8399934,45.7199914 17.152,47.448 C18.4640066,49.1760086 20.0479907,50.535995 21.904,51.528 C23.7600093,52.520005 25.8719882,53.016 28.24,53.016 C31.632017,53.016 34.3039902,52.1840083 36.256,50.52 C38.2080098,48.8559917 39.6959949,46.6480138 40.72,43.896 L52.816,43.896 C52.2399971,46.904015 51.2960066,49.6399877 49.984,52.104 C48.6719934,54.5680123 46.9760104,56.6639914 44.896,58.392 C42.8159896,60.1200086 40.3840139,61.479995 37.6,62.472 C34.8159861,63.464005 31.6960173,63.96 28.24,63.96 C24.3359805,63.96 20.7040168,63.2240074 17.344,61.752 C13.9839832,60.2799926 11.0880122,58.2000134 8.656,55.512 C6.22398784,52.8239866 4.30400704,49.6080187 2.896,45.864 C1.48799296,42.1199813 0.784,38.0080224 0.784,33.528 Z M97.84,48.984 C97.1359965,53.5280227 95.1520163,57.1599864 91.888,59.88 C88.6239837,62.6000136 84.3040269,63.96 78.928,63.96 C75.7919843,63.96 72.9440128,63.4160054 70.384,62.328 C67.8239872,61.2399946 65.6320091,59.7040099 63.808,57.72 C61.9839909,55.7359901 60.5600051,53.3840136 59.536,50.664 C58.5119949,47.9439864 58,44.9200166 58,41.592 C58,38.3279837 58.5119949,35.3360136 59.536,32.616 C60.5600051,29.8959864 61.9839909,27.5280101 63.808,25.512 C65.6320091,23.4959899 67.8239872,21.9280056 70.384,20.808 C72.9440128,19.6879944 75.6959853,19.128 78.64,19.128 C81.840016,19.128 84.639988,19.6559947 87.04,20.712 C89.440012,21.7680053 91.4559918,23.2239907 93.088,25.08 C94.7200082,26.9360093 95.9679957,29.1759869 96.832,31.8 C97.6960043,34.4240131 98.128,37.3039843 98.128,40.44 L98.128,44.088 L69.52,44.088 C69.6480006,45.688008 69.9519976,47.1279936 70.432,48.408 C70.9120024,49.6880064 71.551996,50.7759955 72.352,51.672 C73.152004,52.5680045 74.1119944,53.2399978 75.232,53.688 C76.3520056,54.1360022 77.5839933,54.36 78.928,54.36 C80.9120099,54.36 82.607993,53.9120045 84.016,53.016 C85.424007,52.1199955 86.3519978,50.776009 86.8,48.984 L97.84,48.984 Z M78.736,28.728 C77.5839942,28.728 76.5280048,28.9199981 75.568,29.304 C74.6079952,29.6880019 73.7440038,30.2159966 72.976,30.888 C72.2079962,31.5600034 71.5520027,32.391995 71.008,33.384 C70.4639973,34.376005 70.0640013,35.5439933 69.808,36.888 L86.512,36.888 C86.4479997,35.7359942 86.2560016,34.664005 85.936,33.672 C85.6159984,32.679995 85.1200034,31.8160037 84.448,31.08 C83.7759966,30.3439963 82.9760046,29.7680021 82.048,29.352 C81.1199954,28.9359979 80.0160064,28.728 78.736,28.728 Z M105.712,20.088 L117.616,20.088 L117.616,24.024 C118.768006,22.6799933 120.36799,21.5280048 122.416,20.568 C124.46401,19.6079952 126.703988,19.128 129.136,19.128 C134.000024,19.128 137.743987,20.5839854 140.368,23.496 C142.992013,26.4080146 144.304,30.2319763 144.304,34.968 L144.304,63 L132.4,63 L132.4,37.464 C132.4,35.2239888 131.824006,33.400007 130.672,31.992 C129.519994,30.583993 127.760012,29.88 125.392,29.88 C124.495996,29.88 123.632004,30.0079987 122.8,30.264 C121.967996,30.5200013 121.200004,30.9039974 120.496,31.416 C119.791996,31.9280026 119.184003,32.5519963 118.672,33.288 C118.159997,34.0240037 117.808001,34.8719952 117.616,35.832 L117.616,63 L105.712,63 L105.712,20.088 Z M156.784,29.688 L150.256,29.688 L150.256,20.088 L156.784,20.088 L156.784,8.472 L168.592,8.472 L168.592,20.088 L178,20.088 L178,29.688 L168.592,29.688 L168.592,48.504 C168.592,50.2320086 169.023996,51.4799962 169.888,52.248 C170.752004,53.0160038 171.951992,53.4 173.488,53.4 C174.384004,53.4 175.295995,53.2720013 176.224,53.016 C177.152005,52.7599987 177.967996,52.4400019 178.672,52.056 L178.672,62.52 C177.839996,62.9680022 176.752007,63.3039989 175.408,63.528 C174.063993,63.7520011 172.592008,63.864 170.992,63.864 C166.639978,63.864 163.184013,62.760011 160.624,60.552 C158.063987,58.343989 156.784,54.840024 156.784,50.04 L156.784,29.688 Z M199.12,63 L187.216,63 L187.216,20.088 L199.12,20.088 L199.12,63 Z M200.272,7.704 C200.272,9.75201024 199.568007,11.3999938 198.16,12.648 C196.751993,13.8960062 195.08801,14.52 193.168,14.52 C191.311991,14.52 189.680007,13.8960062 188.272,12.648 C186.863993,11.3999938 186.16,9.75201024 186.16,7.704 C186.16,5.71999008 186.863993,4.10400624 188.272,2.856 C189.680007,1.60799376 191.311991,0.984 193.168,0.984 C195.08801,0.984 196.751993,1.60799376 198.16,2.856 C199.568007,4.10400624 200.272,5.71999008 200.272,7.704 Z M236.848,57.624 C236.335997,58.2000029 235.728004,58.7599973 235.024,59.304 C234.319996,59.8480027 233.520004,60.3119981 232.624,60.696 C231.727996,61.0800019 230.752005,61.3999987 229.696,61.656 C228.639995,61.9120013 227.504006,62.04 226.288,62.04 C223.215985,62.04 220.464012,61.4640058 218.032,60.312 C215.599988,59.1599942 213.552008,57.5920099 211.888,55.608 C210.223992,53.6239901 208.960004,51.3520128 208.096,48.792 C207.231996,46.2319872 206.8,43.4800147 206.8,40.536 C206.8,37.6559856 207.231996,34.9360128 208.096,32.376 C208.960004,29.8159872 210.223992,27.5440099 211.888,25.56 C213.552008,23.5759901 215.599988,22.0080058 218.032,20.856 C220.464012,19.7039942 223.215985,19.128 226.288,19.128 C227.504006,19.128 228.639995,19.2559987 229.696,19.512 C230.752005,19.7680013 231.727996,20.0879981 232.624,20.472 C233.520004,20.8560019 234.319996,21.3199973 235.024,21.864 C235.728004,22.4080027 236.335997,22.9679971 236.848,23.544 L236.848,20.088 L248.752,20.088 L248.752,58.296 C248.752,62.0080186 248.224005,65.2079866 247.168,67.896 C246.111995,70.5840134 244.640009,72.8079912 242.752,74.568 C240.863991,76.3280088 238.624013,77.6399957 236.032,78.504 C233.439987,79.3680043 230.640015,79.8 227.632,79.8 C224.879986,79.8 222.352012,79.4640034 220.048,78.792 C217.743988,78.1199966 215.728009,77.1280066 214,75.816 C212.271991,74.5039934 210.864005,72.9040094 209.776,71.016 C208.687995,69.1279906 208.016001,66.9680122 207.76,64.536 L219.184,64.536 C219.696003,66.5840102 220.655993,68.1199949 222.064,69.144 C223.472007,70.1680051 225.327988,70.68 227.632,70.68 C230.704015,70.68 233.007992,69.8000088 234.544,68.04 C236.080008,66.2799912 236.848,63.6400176 236.848,60.12 L236.848,57.624 Z M236.848,33.528 C236.143996,32.3119939 235.072007,31.2720043 233.632,30.408 C232.191993,29.5439957 230.576009,29.112 228.784,29.112 C227.183992,29.112 225.760006,29.3999971 224.512,29.976 C223.263994,30.5520029 222.208004,31.335995 221.344,32.328 C220.479996,33.320005 219.824002,34.519993 219.376,35.928 C218.927998,37.336007 218.704,38.8719917 218.704,40.536 C218.704,42.2640086 218.927998,43.831993 219.376,45.24 C219.824002,46.648007 220.479996,47.847995 221.344,48.84 C222.208004,49.832005 223.263994,50.6159971 224.512,51.192 C225.760006,51.7680029 227.183992,52.056 228.784,52.056 C230.576009,52.056 232.191993,51.6240043 233.632,50.76 C235.072007,49.8959957 236.143996,48.8560061 236.848,47.64 L236.848,33.528 Z M285.136,31.8 C284.303996,31.2879974 283.376005,30.9200011 282.352,30.696 C281.327995,30.4719989 280.272005,30.36 279.184,30.36 C277.19999,30.36 275.456008,30.8719949 273.952,31.896 C272.447992,32.9200051 271.472002,34.4239901 271.024,36.408 L271.024,63 L259.12,63 L259.12,20.088 L271.024,20.088 L271.024,24.312 C271.920004,22.7759923 273.231991,21.5280048 274.96,20.568 C276.688009,19.6079952 278.57599,19.128 280.624,19.128 C281.712005,19.128 282.655996,19.2079992 283.456,19.368 C284.256004,19.5280008 284.815998,19.703999 285.136,19.896 L285.136,31.8 Z M315.568,63 L315.568,60.696 C314.863996,61.4000035 313.53601,62.0879966 311.584,62.76 C309.63199,63.4320034 307.472012,63.768 305.104,63.768 C302.927989,63.768 300.88001,63.464003 298.96,62.856 C297.03999,62.247997 295.360007,61.3520059 293.92,60.168 C292.479993,58.9839941 291.344004,57.5280086 290.512,55.8 C289.679996,54.0719914 289.264,52.0880112 289.264,49.848 C289.264,47.7999898 289.679996,45.9280085 290.512,44.232 C291.344004,42.5359915 292.511992,41.0960059 294.016,39.912 C295.520008,38.7279941 297.27999,37.8000034 299.296,37.128 C301.31201,36.4559966 303.503988,36.12 305.872,36.12 C307.728009,36.12 309.583991,36.3759974 311.44,36.888 C313.296009,37.4000026 314.671996,37.9759968 315.568,38.616 L315.568,35.448 C315.568,33.5919907 315.008006,32.0240064 313.888,30.744 C312.767994,29.4639936 311.024012,28.824 308.656,28.824 C306.927991,28.824 305.552005,29.1759965 304.528,29.88 C303.503995,30.5840035 302.768002,31.5759936 302.32,32.856 L290.992,32.856 C291.312002,30.9359904 291.967995,29.1440083 292.96,27.48 C293.952005,25.8159917 295.231992,24.3600062 296.8,23.112 C298.368008,21.8639938 300.17599,20.8880035 302.224,20.184 C304.27201,19.4799965 306.511988,19.128 308.944,19.128 C314.704029,19.128 319.151984,20.5839854 322.288,23.496 C325.424016,26.4080146 326.992,30.4559741 326.992,35.64 L326.992,63 L315.568,63 Z M315.568,48.216 C315.375999,47.6399971 315.024003,47.1280022 314.512,46.68 C313.999997,46.2319978 313.392004,45.8320018 312.688,45.48 C311.983996,45.1279982 311.216004,44.8720008 310.384,44.712 C309.551996,44.5519992 308.720004,44.472 307.888,44.472 C306.927995,44.472 306.000004,44.567999 305.104,44.76 C304.207996,44.952001 303.392004,45.2719978 302.656,45.72 C301.919996,46.1680022 301.344002,46.7279966 300.928,47.4 C300.511998,48.0720034 300.304,48.8559955 300.304,49.752 C300.304,50.7120048 300.511998,51.5119968 300.928,52.152 C301.344002,52.7920032 301.919996,53.3359978 302.656,53.784 C303.392004,54.2320022 304.207996,54.551999 305.104,54.744 C306.000004,54.936001 306.927995,55.032 307.888,55.032 C308.720004,55.032 309.551996,54.9520008 310.384,54.792 C311.216004,54.6319992 311.983996,54.3920016 312.688,54.072 C313.392004,53.7519984 313.999997,53.3680022 314.512,52.92 C315.024003,52.4719978 315.375999,51.9600029 315.568,51.384 L315.568,48.216 Z M364.336,59.448 C363.823997,60.0240029 363.200004,60.5839973 362.464,61.128 C361.727996,61.6720027 360.896005,62.1519979 359.968,62.568 C359.039995,62.9840021 358.016006,63.3199987 356.896,63.576 C355.775994,63.8320013 354.672005,63.96 353.584,63.96 C350.447984,63.96 347.664012,63.3840058 345.232,62.232 C342.799988,61.0799942 340.752008,59.4800102 339.088,57.432 C337.423992,55.3839898 336.160004,53.0000136 335.296,50.28 C334.431996,47.5599864 334,44.6640154 334,41.592 C334,38.4559843 334.431996,35.5440134 335.296,32.856 C336.160004,30.1679866 337.423992,27.8000102 339.088,25.752 C340.752008,23.7039898 342.799988,22.0880059 345.232,20.904 C347.664012,19.7199941 350.447984,19.128 353.584,19.128 C354.672005,19.128 355.775994,19.2559987 356.896,19.512 C358.016006,19.7680013 359.039995,20.1039979 359.968,20.52 C360.896005,20.9360021 361.727996,21.4319971 362.464,22.008 C363.200004,22.5840029 363.823997,23.1599971 364.336,23.736 L364.336,0.6 L376.24,0.6 L376.24,63 L364.336,63 L364.336,59.448 Z M364.336,34.488 C363.631996,33.0159926 362.544007,31.8160046 361.072,30.888 C359.599993,29.9599954 357.968009,29.496 356.176,29.496 C354.575992,29.496 353.136006,29.8159968 351.856,30.456 C350.575994,31.0960032 349.504004,31.9439947 348.64,33 C347.775996,34.0560053 347.104002,35.3199926 346.624,36.792 C346.143998,38.2640074 345.904,39.8639914 345.904,41.592 C345.904,43.3200086 346.143998,44.9199926 346.624,46.392 C347.104002,47.8640074 347.775996,49.1279947 348.64,50.184 C349.504004,51.2400053 350.575994,52.071997 351.856,52.68 C353.136006,53.288003 354.575992,53.592 356.176,53.592 C357.968009,53.592 359.599993,53.1280046 361.072,52.2 C362.544007,51.2719954 363.631996,50.0720074 364.336,48.6 L364.336,34.488 Z M423.76,48.984 C423.055996,53.5280227 421.072016,57.1599864 417.808,59.88 C414.543984,62.6000136 410.224027,63.96 404.848,63.96 C401.711984,63.96 398.864013,63.4160054 396.304,62.328 C393.743987,61.2399946 391.552009,59.7040099 389.728,57.72 C387.903991,55.7359901 386.480005,53.3840136 385.456,50.664 C384.431995,47.9439864 383.92,44.9200166 383.92,41.592 C383.92,38.3279837 384.431995,35.3360136 385.456,32.616 C386.480005,29.8959864 387.903991,27.5280101 389.728,25.512 C391.552009,23.4959899 393.743987,21.9280056 396.304,20.808 C398.864013,19.6879944 401.615985,19.128 404.56,19.128 C407.760016,19.128 410.559988,19.6559947 412.96,20.712 C415.360012,21.7680053 417.375992,23.2239907 419.008,25.08 C420.640008,26.9360093 421.887996,29.1759869 422.752,31.8 C423.616004,34.4240131 424.048,37.3039843 424.048,40.44 L424.048,44.088 L395.44,44.088 C395.568001,45.688008 395.871998,47.1279936 396.352,48.408 C396.832002,49.6880064 397.471996,50.7759955 398.272,51.672 C399.072004,52.5680045 400.031994,53.2399978 401.152,53.688 C402.272006,54.1360022 403.503993,54.36 404.848,54.36 C406.83201,54.36 408.527993,53.9120045 409.936,53.016 C411.344007,52.1199955 412.271998,50.776009 412.72,48.984 L423.76,48.984 Z M404.656,28.728 C403.503994,28.728 402.448005,28.9199981 401.488,29.304 C400.527995,29.6880019 399.664004,30.2159966 398.896,30.888 C398.127996,31.5600034 397.472003,32.391995 396.928,33.384 C396.383997,34.376005 395.984001,35.5439933 395.728,36.888 L412.432,36.888 C412.368,35.7359942 412.176002,34.664005 411.856,33.672 C411.535998,32.679995 411.040003,31.8160037 410.368,31.08 C409.695997,30.3439963 408.896005,29.7680021 407.968,29.352 C407.039995,28.9359979 405.936006,28.728 404.656,28.728 Z" id="Centigrade" fill="#FFFFFF"></path>
            <path d="M436.6,13.096 C436.6,16.744 439.576,19.624 443.128,19.624 C446.68,19.624 449.656,16.744 449.656,13.096 C449.656,9.448 446.68,6.472 443.128,6.472 C439.576,6.472 436.6,9.448 436.6,13.096 Z M454.936,13.096 C454.936,19.72 449.656,25 443.128,25 C436.6,25 431.32,19.72 431.32,13.096 C431.32,6.472 436.6,1.192 443.128,1.192 C449.656,1.192 454.936,6.472 454.936,13.096 Z" id="°" fill="#DDDDDD" opacity="0.795233243"></path>
        </g>
    </g>
</svg>