<?xml version="1.0" encoding="UTF-8"?>
<svg width="444px" height="93px" viewBox="0 0 444 93" version="1.1" xmlns="http://www.w3.org/2000/svg" xmlns:xlink="http://www.w3.org/1999/xlink">
    <!-- Generator: Sketch 42 (36781) - http://www.bohemiancoding.com/sketch -->
    <title>centigrade-logotype-monochrome</title>
    <desc>Created with Sketch.</desc>
    <defs></defs>
    <g id="Page-1" stroke="none" stroke-width="1" fill="none" fill-rule="evenodd">
        <g id="centigrade-logotype-monochrome" fill="#000000">
            <path d="M53.216,11.248 C45.536,5.392 38.144,4.912 34.304,4.912 C15.104,4.912 0.8,19.12 0.8,38.224 C0.8,56.752 14.912,71.152 33.92,71.152 C38.72,71.152 46.112,70 53.216,64.912 L53.216,56.08 C52.064,57.232 49.472,59.632 45.824,61.456 C42.464,63.184 38.24,64.432 33.92,64.432 C22.208,64.432 8.096,55.696 8.096,38.32 C8.096,23.536 19.04,11.632 33.824,11.632 C37.568,11.632 41.504,12.592 44.864,14.128 C48.128,15.664 51.2,18.064 53.216,20.08 L53.216,11.248 Z M94.112,56.656 L99.872,59.824 C98.72,62.032 96.992,64.432 94.976,66.256 C91.328,69.52 86.816,71.152 81.728,71.152 C72.128,71.152 62.048,65.104 62.048,50.32 C62.048,38.416 69.344,29.2 81.344,29.2 C89.12,29.2 94.016,33.04 96.416,36.496 C98.912,40.048 100.352,46.192 100.16,51.472 L69.152,51.472 C69.248,59.728 74.912,65.008 81.824,65.008 C85.088,65.008 87.68,64.048 89.984,62.128 C91.808,60.592 93.248,58.576 94.112,56.656 Z M69.632,45.712 L93.056,45.712 C91.904,39.472 87.2,35.344 81.344,35.344 C75.488,35.344 70.688,39.76 69.632,45.712 Z M110.72,70 L117.632,70 L117.632,49.168 C117.632,46.288 117.824,41.584 120.512,38.416 C122.528,36.016 125.12,35.344 127.52,35.344 C130.592,35.344 132.704,36.496 134.048,38.224 C135.68,40.336 135.872,43.12 135.872,45.52 L135.872,70 L142.784,70 L142.784,45.328 C142.784,40.912 142.496,37.648 140.48,34.672 C138.08,31.12 133.76,29.2 129.056,29.2 C122.432,29.2 118.88,33.136 117.632,34.768 L117.632,30.16 L110.72,30.16 L110.72,70 Z M169.856,36.496 L169.856,30.16 L162.944,30.16 L162.944,15.76 L156.032,15.76 L156.032,30.16 L151.808,30.16 L151.808,36.496 L156.032,36.496 L156.032,70 L162.944,70 L162.944,36.496 L169.856,36.496 Z M176.384,30.16 L176.384,70 L183.296,70 L183.296,30.16 L176.384,30.16 Z M174.944,15.088 C174.944,17.776 177.152,19.984 179.84,19.984 C182.528,19.984 184.736,17.776 184.736,15.088 C184.736,12.4 182.528,10.192 179.84,10.192 C177.152,10.192 174.944,12.4 174.944,15.088 Z M226.88,35.824 L226.88,30.16 L233.792,30.16 L233.792,69.04 C233.792,73.36 233.792,79.504 229.952,84.688 C226.976,88.72 221.504,92.08 214.016,92.08 C207.2,92.08 202.496,89.392 199.808,86.704 C197.12,84.016 194.624,79.696 194.624,73.84 L201.44,73.84 C201.44,77.2 202.784,80.176 204.512,82.096 C207.392,85.264 211.04,85.936 214.112,85.936 C219.008,85.936 222.368,84.208 224.672,80.368 C226.688,77.104 226.88,73.552 226.88,70.192 L226.88,64.432 C224.576,67.408 220.256,71.152 213.248,71.152 C207.392,71.152 202.688,68.848 199.616,65.776 C196.928,63.088 193.856,58.096 193.856,50.032 C193.856,42.256 196.736,37.456 199.616,34.576 C202.976,31.312 207.872,29.2 213.248,29.2 C219.104,29.2 223.712,31.696 226.88,35.824 Z M214.016,35.344 C209.792,35.344 206.912,37.168 204.992,39.088 C201.632,42.544 200.96,46.768 200.96,50.032 C200.96,53.488 201.632,58.192 205.472,61.744 C207.68,63.76 210.368,65.008 214.016,65.008 C217.664,65.008 220.544,63.856 222.752,61.648 C225.44,59.056 227.264,54.832 227.264,50.128 C227.264,45.424 225.536,41.296 223.04,38.896 C220.832,36.688 217.568,35.344 214.016,35.344 Z M246.848,70 L253.76,70 L253.76,48.976 C253.76,42.448 254.912,39.76 256.064,38.224 C257.12,36.88 258.848,35.728 261.632,35.728 C262.688,35.728 264.128,36.016 265.664,37.072 L268.928,30.832 C267.2,29.968 264.896,29.2 262.784,29.2 C257.408,29.2 254.432,33.424 253.76,34.48 L253.76,30.16 L246.848,30.16 L246.848,70 Z M303.776,35.824 L303.776,30.16 L310.688,30.16 L310.688,70 L303.776,70 L303.776,64.432 C301.472,67.408 297.152,71.152 290.144,71.152 C280.064,71.152 270.752,64.048 270.752,50.032 C270.752,36.304 279.968,29.2 290.144,29.2 C297.824,29.2 301.952,33.424 303.776,35.824 Z M290.912,35.344 C284.096,35.344 277.856,40.336 277.856,50.032 C277.856,58.576 282.656,65.008 290.912,65.008 C299.36,65.008 304.16,58 304.16,50.128 C304.16,39.856 297.056,35.344 290.912,35.344 Z M354.272,35.824 L354.272,0.016 L361.184,0.016 L361.184,70 L354.272,70 L354.272,64.432 C351.968,67.408 347.648,71.152 340.64,71.152 C330.56,71.152 321.248,64.048 321.248,50.032 C321.248,36.304 330.464,29.2 340.64,29.2 C348.32,29.2 352.448,33.424 354.272,35.824 Z M341.408,35.344 C334.592,35.344 328.352,40.336 328.352,50.032 C328.352,58.576 333.152,65.008 341.408,65.008 C349.856,65.008 354.656,58 354.656,50.128 C354.656,39.856 347.552,35.344 341.408,35.344 Z M403.808,56.656 L409.568,59.824 C408.416,62.032 406.688,64.432 404.672,66.256 C401.024,69.52 396.512,71.152 391.424,71.152 C381.824,71.152 371.744,65.104 371.744,50.32 C371.744,38.416 379.04,29.2 391.04,29.2 C398.816,29.2 403.712,33.04 406.112,36.496 C408.608,40.048 410.048,46.192 409.856,51.472 L378.848,51.472 C378.944,59.728 384.608,65.008 391.52,65.008 C394.784,65.008 397.376,64.048 399.68,62.128 C401.504,60.592 402.944,58.576 403.808,56.656 Z M379.328,45.712 L402.752,45.712 C401.6,39.472 396.896,35.344 391.04,35.344 C385.184,35.344 380.384,39.76 379.328,45.712 Z" id="Centigrade"></path>
            <path d="M415.984,19.888 C415.984,12.112 422.032,5.968 430,5.968 C437.968,5.968 444.016,12.112 444.016,19.888 C444.016,27.664 437.968,33.808 430,33.808 C422.032,33.808 415.984,27.664 415.984,19.888 Z M421.936,19.888 C421.936,24.688 425.488,28.24 430,28.24 C434.512,28.24 438.064,24.688 438.064,19.888 C438.064,15.088 434.512,11.536 430,11.536 C425.488,11.536 421.936,15.088 421.936,19.888 Z" id="°" fill-opacity="0.5"></path>
        </g>
    </g>
</svg>